<svg width="3024" height="1248" viewBox="0 0 3024 1248" fill="none" xmlns="http://www.w3.org/2000/svg">
<path d="M2400.82 396.657C2400.69 396.62 2400.56 396.583 2400.44 396.546C2395.39 395.666 2367.62 407.975 2355.03 414.218C2339.48 420.215 2312.84 442.346 2302.76 454.054C2286.17 470.159 2278.28 497.316 2276.41 508.881C2275.03 516.077 2279 540.149 2281.16 551.286C2283.23 567.391 2276.55 582.269 2272.95 587.694C2269.93 589.408 2270.79 607.398 2269.93 608.683C2269.24 609.711 2264.46 609.968 2262.15 609.968C2252.48 610.653 2252.07 591.406 2253.08 581.698C2255.85 562.508 2249.34 557.996 2245.74 558.139C2227.16 557.711 2227.6 590.693 2226.3 590.693C2225.26 590.693 2221.84 627.244 2220.25 645.52C2218.18 664.024 2213.63 668.364 2211.61 668.221C2202.97 671.991 2201.39 652.373 2201.68 642.093C2205.82 600.287 2199.95 591.835 2196.49 592.834C2186.82 596.946 2185.84 631.099 2186.56 647.661C2187.6 666.851 2182.38 670.22 2179.65 669.506C2166.86 669.164 2165.68 630.813 2166.69 611.681C2168.42 584.953 2161.94 582.269 2158.48 584.268C2150.53 589.065 2152.86 624.817 2155.02 642.093C2155.37 649.974 2152 652.23 2150.27 652.373C2135.76 653.744 2135.3 612.395 2136.88 591.549C2136.54 570.304 2130.4 580.698 2127.38 588.551C2125.3 590.95 2124.79 616.107 2124.79 628.386C2120.64 628.043 2117.87 621.39 2117.01 618.106C2104.57 545.803 2152.72 477.469 2178.35 452.34C2250.37 377.171 2356.14 383.768 2400.44 396.546C2400.58 396.571 2400.71 396.608 2400.82 396.657Z" fill="#033F47"/>
<path d="M2490.63 763.051C2490.72 762.958 2490.82 762.865 2490.91 762.772C2494.11 758.802 2496.56 728.743 2497.08 714.792C2499.25 698.387 2492.47 664.59 2486.95 650.201C2480.67 628.039 2460.44 608.134 2451.11 600.952C2445.4 596.293 2422.2 588.189 2411.31 584.719C2396.07 578.787 2386.12 565.831 2383.05 560.095C2382.99 556.642 2366.66 548.754 2365.94 547.385C2365.36 546.29 2367.43 542.009 2368.53 540.005C2372.57 531.26 2389.79 540.153 2397.9 545.692C2413.54 557.313 2420.66 553.819 2422.26 550.62C2431.56 534.67 2402.18 519.206 2402.8 518.079C2403.3 517.177 2372.61 496.642 2357.21 486.488C2341.84 475.798 2340.18 469.756 2341.28 468.071C2342.09 458.747 2360.21 466.791 2369.16 471.978C2404.15 495.663 2414.45 494.612 2415.22 491.127C2416.23 480.736 2386.49 463.482 2371.5 456.154C2354.02 447.84 2353.55 441.688 2355.49 439.652C2361.94 428.695 2396.43 446.087 2412.87 456.152C2435.68 470.491 2441.17 466.145 2441.06 462.179C2440.63 452.962 2407.89 437.821 2391.57 431.402C2384.43 427.918 2384.05 423.904 2384.75 422.332C2390.51 409.05 2427.31 428.508 2444.99 439.897C2463.95 449.8 2457.7 439.473 2452.21 433.071C2451.08 430.116 2429.07 417.583 2418.21 411.686C2420.51 408.244 2427.72 409.034 2431.04 409.86C2500.97 433.764 2538.29 508.461 2548.21 542.821C2580.12 641.559 2523.48 730.387 2490.91 762.772C2490.82 762.887 2490.72 762.981 2490.63 763.051Z" fill="#033F47"/>
<path d="M2120.37 660.495C2120.4 660.622 2120.43 660.749 2120.47 660.877C2122.3 665.626 2147.21 682.929 2159.08 690.438C2172.25 700.59 2205.08 711.892 2220.39 714.456C2242.84 720.3 2270.4 713.07 2281.37 708.724C2288.3 706.205 2307.09 690.462 2315.62 682.906C2328.5 672.872 2344.8 670.917 2351.35 671.194C2354.38 672.887 2369.51 662.914 2371.06 662.989C2372.31 663.05 2374.98 666.985 2376.17 668.946C2381.73 676.827 2365.28 687.053 2356.36 691.181C2338.33 698.682 2337.77 706.536 2339.74 709.526C2348.91 725.551 2377.23 708.247 2377.9 709.35C2378.43 710.232 2411.82 694.379 2428.45 686.343C2445.53 678.605 2451.62 680.248 2452.53 682.036C2460.23 687.452 2444.06 698.873 2435.02 703.907C2396.71 721.845 2392.42 731.184 2395.05 733.611C2403.58 739.733 2433.64 723.029 2447.6 713.912C2463.68 703.176 2469.27 705.881 2470.06 708.575C2476.33 719.631 2443.74 740.328 2426.67 749.295C2402.65 761.549 2403.66 768.441 2407.16 770.355C2415.39 774.654 2445.13 754.311 2458.98 743.602C2465.62 739.261 2469.3 740.97 2470.31 742.367C2478.95 754.013 2443.41 775.637 2424.55 784.993C2406.35 796.197 2418.49 796.079 2426.84 794.619C2429.98 795.152 2452.02 782.675 2462.64 776.369C2464.47 780.074 2460.14 785.843 2457.74 788.264C2401.56 835.977 2317.7 830.096 2282.79 821.191C2180.76 798.513 2132.15 705.124 2120.47 660.877C2120.41 660.739 2120.38 660.611 2120.37 660.495Z" fill="#033F47"/>
<path d="M375.528 819L571.513 400.304H657.628L853.613 819H744.337L708.109 734.073H521.032L484.805 819H375.528ZM613.68 514.332L556.666 650.334H671.882L614.868 514.332H613.68ZM878.97 819V400.304H1080.3C1127.81 400.304 1164.43 412.578 1190.17 437.126C1216.3 461.278 1229.37 494.734 1229.37 537.494C1229.37 580.254 1216.3 613.908 1190.17 638.456C1164.43 662.608 1127.81 674.684 1080.3 674.684H988.246V819H878.97ZM988.246 590.945H1061.3C1104.06 590.945 1125.44 573.128 1125.44 537.494C1125.44 501.86 1104.06 484.044 1061.3 484.044H988.246V590.945ZM1185.75 819L1381.74 400.304H1467.85L1663.84 819H1554.56L1518.33 734.073H1331.26L1295.03 819H1185.75ZM1423.9 514.332L1366.89 650.334H1482.11L1425.09 514.332H1423.9ZM1689.19 819V400.304H1769.37L1961.79 640.238V400.304H2062.75V819H1983.17L1790.75 579.067V819H1689.19Z" fill="#033F47"/>
</svg>
