<?xml version="1.0" encoding="UTF-8"?>
<svg id="Layer_2" data-name="Layer 2" xmlns="http://www.w3.org/2000/svg" viewBox="0 0 577.72 577.73">
  <defs>
    <style>
      .cls-1 {
        fill: #435f4a;
      }

      .cls-2 {
        fill: #cbdbc0;
      }

      .cls-3 {
        fill: #4f7170;
      }

      .cls-4 {
        fill: #cb5427;
      }

      .cls-5 {
        fill: #fff;
      }

      .cls-6 {
        fill: #efe8d5;
      }

      .cls-7 {
        fill: #f8aa31;
      }
    </style>
  </defs>
  <g id="Layer_1-2" data-name="Layer 1">
    <g>
      <path class="cls-5" d="M577.72,288.87c0,34.64-6.1,67.85-17.28,98.63-.05.16-.12.3-.17.45-7.46,20.44-17.18,39.81-28.84,57.8-48.33,74.6-130.15,125.5-224.19,131.41-6.08.38-12.22.57-18.4.57-5.27,0-10.51-.14-15.7-.43-32.2-1.72-63.01-8.72-91.56-20.16-39.32-15.73-74.36-39.85-102.92-70.13-27.05-28.69-48.29-62.92-61.86-100.8C5.93,355.8,0,323.03,0,288.87,0,129.34,129.32.01,288.85.01s288.87,129.32,288.87,288.85Z"/>
      <path class="cls-3" d="M560.27,387.95c-13.16,36.04-33.29,68.72-58.77,96.42-6.79,7.38-13.95,14.42-21.48,21.06-46.64,41.21-106.69,67.58-172.77,71.73-6.08.38-12.22.57-18.4.57-5.27,0-10.51-.14-15.7-.43-32.2-1.72-63.01-8.72-91.56-20.16-53.1-21.25-98.43-57.81-130.5-104.23-3.47-5-6.78-10.12-9.94-15.35-3.78-6.3-7.33-12.76-10.65-19.35-2.63-5.23-5.1-10.57-7.4-15.99-2.27-5.26-4.35-10.6-6.3-16.01,64.41-31.03,131.55-23.73,209.76,6.2,45.07,17.24,78.88,24.75,118.92,15.56,71.68-16.44,167.21-32.97,214.78-20.02Z"/>
      <path class="cls-5" d="M501.5,484.37c-6.79,7.38-13.95,14.42-21.48,21.06-13.58,1.62-26.79,2.37-39.63,2.37-91.96,0-165.57-38.18-222.74-67.84-5.18-2.69-10.22-5.3-15.1-7.8l-.41-.22c-95.47-55.33-157.56-22.77-171.63-13.73-2.63-5.23-5.1-10.57-7.4-15.99,20.35-12.25,88.18-43.05,187.6,14.47,4.86,2.47,9.86,5.07,15,7.73,67.6,35.07,158.96,82.48,275.78,59.94Z"/>
      <path class="cls-5" d="M220.86,466.31l-9.31,13.61c-48.97-33.5-114.92-32.97-160.45-27.01-3.47-5-6.78-10.12-9.94-15.35,9.65-1.46,20.4-2.73,31.88-3.52,59.8-4.13,110.91,7.03,147.82,32.27Z"/>
      <path class="cls-6" d="M269.98,18.17c43.28-5.77,109.42,9.03,148.32,29.18-15.31,4.46-45.58,10.15-58.47,15.36,15.67.74,39.97,1.32,55.52.66,37.03-1.57,49.07,14.48,73.79,39.44-23.41-.5-43.67-2.8-66.63,3.38-23.91,6.44-48.2,12.02-72.69,15.66,27.23,1.76,50.72,2.62,78.25,2.05,23.93.13,49.84-7.74,73.51-4.07,6.95,1.07,25.21,30.99,29.75,38.08-49.07,4.7-109.98,6.89-158.28-1.02-35.08-4.31-46.64-33.14-65.48-36.8-9.16-1.78-53.62,47.06-75.93,53.15-49.06,13.4-72.83,1.73-119.66-2.18-19.01-1.59-47.39,1.01-69.29-.24,5.45-12.66,13.19-24.69,21.2-35.81,28.87-7.94,72.89-12.74,98.07-20.7-31.47-2.7-47.2-5.37-79.93-5.01,53.06-55,111.82-85.36,187.92-91.13Z"/>
      <path class="cls-6" d="M492.52,167.36c14.93-1.41,29.25,2.01,43.88,4.9,7.05,15.66,13.61,31.57,19.6,47.72-13.62-.37-41.35-3.32-53.87-2.12-26.81,2.58-39.43,7.6-67.42,5.77-27.46-7.32-43.56-29.53-67.71-46.3,32.3-6.26,50.06-4.76,82.77-2.48,7.91.55,31.99-6.18,42.74-7.49Z"/>
      <path class="cls-6" d="M557.45,237.77c5.57,4.06,6.34,59.67,6.34,67.58-6.96-7.23-13.86-14.52-20.7-21.87-11.1-12.16-20.89-22.86-32.84-34.25,18.84-7.16,27.19-10.59,47.21-11.46Z"/>
      <path class="cls-6" d="M33.92,184.07c16.93,2.15,33.91,3.81,50.92,4.96-5.51,11.12-5.08,28.24-7.53,31.96l-5.37.1c-21.94-4.3-28.83-5.4-50.57-1.56,4.15-13.04,6.69-22.84,12.55-35.46Z"/>
      <path class="cls-6" d="M46.61,250.39c7.91-.8,19.34-.86,27.59-1.13-18.03,14.01-29.77,26.12-45.9,42.29-4.79,4.14-8.8,6.77-14.62,9.84-4.69-8.54-.27-38.2.3-49.6,10.5-.74,22.03-.98,32.63-1.4Z"/>
      <path class="cls-6" d="M184.65,193.88l40.6.36c-5.92,4.39-12.78,8.86-18.92,13.06-3.18,2.01-11.21,9.06-14.47,11.79l-.78-2.4,1.15,1.84c-3.16-7.3-1.91-12.35-7.57-24.66Z"/>
      <path class="cls-4" d="M577.72,288.88c0,8.42-.36,16.76-1.08,25l-15.78-11.11c.23-4.6.35-9.22.35-13.89,0-150.19-122.18-272.38-272.38-272.38S16.49,138.69,16.49,288.88c0,3.65.08,7.31.22,10.92l-16.06,8.47c-.43-6.41-.65-12.88-.65-19.39C0,129.32,129.31,0,288.84,0s288.88,129.32,288.88,288.88Z"/>
      <g>
        <path class="cls-1" d="M573.98,335.45c-4.53-5.69-9.35-11.4-14.34-17.13-22.27-25.43-48.15-50.92-68.35-74.56-11.61,12.47-23.11,25.04-34.52,37.68-31.54-30.87-70.67-61.44-103.83-91.43-6.02-5.44-44.9-39.68-50.22-43.09-29.61,29.13-143.43,131.19-176.94,146.51-17.48-11.28-29.03-21.71-44.37-35.83-19.34,17.68-41.96,38.81-63.64,57.57-5.12,4.42-10.18,8.71-15.13,12.79-.03.01-.04.04-.06.05,1.13,8.38,2.62,16.63,4.46,24.77.03-.01.04-.03.06-.04,5.12-3.07,9.55-6.1,14.79-9.79,2.01-1.4,4.13-2.9,6.45-4.55-1.92,3.38-3.69,6.49-5.41,9.4-4.13,7.03-7.89,12.97-12.25,19.09-.01.03-.04.05-.05.08,1.01,3.6,2.07,7.16,3.23,10.69.01,0,.04-.01.05-.03,5.47-1.92,10.6-3.9,15.44-6.06,22.76-10.13,39.21-24,54.14-51.95,1.14-2.15,2.24-4.34,3.26-6.57-8.52,4.74-17.63,10.05-26.22,14.55l22.22-54.78c8.1,14.94,28.11,45.87,33.18,58.22-11.48,14.21-18.25,19.47-33.14,30.22,30.78-6.13,78.93-24.26,95.3-51.7,14.65-24.54,19.02-37.23,37.79-59.77-10.35,41.61-15.66,66.25-40.86,101.03,15.93-7.12,28.51-11.72,45.26-16.91-8.86,16.7-13.5,24.94-30.07,35.04,18.12,2.4,34.39,11.44,51.96,16.49,26.41-16.8,46.75-32.16,67.65-56.02,7.5-9.52,29.34-42.7,28.24-53.19-8.47-2.41-38.62,39.9-59.9,30.2-1.97-4.65-.86-7.59,2.1-11.71,8.96-12.53,17.33-24.89,25.51-37.97-7.71-5.14-16.3-10.44-17.46-20.42-2.27-19.38,9.77-47.52,14.24-68,71.49,59.62,139.36,123.25,209.51,184.29,7.9,6.88,21.74,15.29,35.22,22.4,5.16,2.72,10.26,5.26,14.96,7.45.01.01.04.01.05.03.43-1.24.84-2.47,1.24-3.72-.01-.01-.04-.03-.05-.04-4.18-3.6-8.9-7.68-13.61-11.89-11.78-10.53-23.51-21.92-26.84-28.81-9.91-20.51-19.65-50.79-27.49-72.76,14.61,15.75,40.29,42.66,62.84,63.1,5.1,4.62,10.04,8.91,14.66,12.68.01.01.04.03.05.04.34-1.85.66-3.72.96-5.58-.01-.03-.04-.04-.05-.06Z"/>
        <path class="cls-1" d="M481.74,365.69c-14.24-9.05-26.92-19.42-39.63-30.47-14.47-12.7-28.79-25.58-42.94-38.63-3.2-2.92-16.75-15.73-19.42-17.47,7.07,21.87,24.72,47.03,33.61,68.64-39.23-14-44.38-28.72-69.78-55.89,4.43,25.58,8.22,45.17,17.2,70.01-16.69,17.15-39.44,27.58-60.7,38.5,4.22-.86,18.81-2.28,22.42-2.48,25.32-3.84,48.89-10.59,73.97-14.21,34.86-5.03,69.08-10.61,104.28-9.93l-.83-.56c-6.75-4.5-11.26-3.11-18.18-7.5Z"/>
      </g>
      <circle class="cls-7" cx="129.42" cy="223.57" r="39.5"/>
      <path class="cls-2" d="M560.44,387.5c-3.45,9.48-7.37,18.74-11.78,27.74-2.47,5.12-5.1,10.13-7.88,15.07-46.67,82.96-133.14,140.55-233.54,146.86l-34.1.14c-21.27-1.14-41.93-4.57-61.73-10.08-10.18-2.82-20.14-6.19-29.83-10.08.67-3.04,1.49-6.33,2.47-9.82,10.01-35.12,38.01-89.53,116.01-100.56,117.15-16.58,157.77-57.74,191.88-64.19,31.06-5.88,63.04,3.25,68.49,4.92Z"/>
      <path class="cls-5" d="M548.67,415.24c-2.47,5.12-5.1,10.13-7.88,15.07-28.14-7.02-67.98-5.44-107.14,35.43-2.64,2.59-5.32,5.26-8.21,8.12-28.16,27.92-75.28,74.66-114.1,84.33-27.54,6.85-53.66,9.78-78.35,9.78-7.31,0-14.5-.26-21.56-.74-10.18-2.82-20.14-6.19-29.83-10.08.67-3.04,1.49-6.33,2.47-9.82,37.32,6.11,78.39,6.02,123.27-5.16,34.42-8.58,79.53-53.31,106.47-80.04,2.93-2.89,5.64-5.57,8.11-7.99,43.53-45.44,91.22-48.62,126.74-38.9Z"/>
      <path class="cls-4" d="M531.44,445.76c-10.43,16.09-22.4,31.08-35.73,44.74-4.35,4.47-8.85,8.78-13.47,12.97-5.43,4.88-11.04,9.57-16.81,14.04-5.78,4.48-11.74,8.73-17.85,12.76-2.59,1.7-5.21,3.37-7.85,4.99-5.75,3.54-11.62,6.87-17.63,9.99-10.34,5.39-21.04,10.17-32.06,14.28-7.24,2.71-14.63,5.14-22.14,7.27-3.51,1-7.06,1.94-10.64,2.8-5.93,1.45-11.93,2.71-18.01,3.77-10.48,1.85-21.15,3.12-32,3.81-6.08.38-12.22.57-18.4.57-5.27,0-10.51-.14-15.7-.43-13.96-.74-27.68-2.49-41.07-5.16h-.01c-8.02-1.61-15.93-3.54-23.71-5.79-2.64-.76-5.26-1.57-7.86-2.4-6.24-2.01-12.38-4.21-18.42-6.62-.17-.06-.32-.13-.49-.19-17.14-6.85-33.47-15.31-48.81-25.17-3.59-2.32-7.12-4.7-10.6-7.16-2.15-1.52-4.29-3.07-6.39-4.65-2.9-2.16-5.75-4.39-8.55-6.67-7.68-6.21-15.04-12.81-22.05-19.78-2.22-2.19-4.39-4.43-6.53-6.7,30.26-18.72,73.46-40.65,115.79-45.5,8.23-.95,16.78-1.23,25.62-1.05h.01c47.81,1.01,103.75,16.09,159.83,18.84h.01c13.68.67,27.36.61,40.95-.58,16.44-1.42,32.71-4.5,48.63-9.88,27.92-9.46,47.79-8.73,61.92-3.08Z"/>
      <path class="cls-5" d="M465.42,517.51c-5.78,4.48-11.74,8.73-17.85,12.76-1.22-.47-2.41-.93-3.59-1.39-7.55-2.94-14.11-5.48-19.74-7.38-97.27-36.21-190.38-34.94-276.99,3.63-5,2.23-9.82,4.52-14.47,6.85-3.59-2.32-7.12-4.7-10.6-7.16-2.15-1.52-4.29-3.07-6.39-4.65,7.29-3.89,15.04-7.72,23.24-11.39,62.79-28.15,164.32-51.75,291.3-4.51,5.78,1.93,12.49,4.53,20.25,7.57,4.7,1.83,9.65,3.73,14.83,5.67Z"/>
      <path class="cls-5" d="M390.03,559.52c-7.24,2.71-14.63,5.14-22.14,7.27-3.51,1-7.06,1.94-10.64,2.8-43.68-9.69-85.81-8.91-125.16,2.56h-.01c-8.02-1.61-15.93-3.54-23.71-5.79-2.64-.76-5.26-1.57-7.86-2.4,7.69-3.21,15.97-6.22,24.79-8.87,57.83-17.32,114.43-11.54,164.73,4.43Z"/>
    </g>
  </g>
</svg>