<?xml version="1.0" encoding="UTF-8"?>
<svg id="Layer_2" data-name="Layer 2" xmlns="http://www.w3.org/2000/svg" viewBox="0 0 577.72 895.87">
  <defs>
    <style>
      .cls-1 {
        fill: #435f4a;
      }

      .cls-2 {
        fill: #cbdbc0;
      }

      .cls-3 {
        fill: #4f7170;
      }

      .cls-4 {
        fill: #cb5427;
      }

      .cls-5 {
        fill: #fff;
      }

      .cls-6 {
        fill: #efe8d5;
      }

      .cls-7 {
        fill: #f8aa31;
      }
    </style>
  </defs>
  <g id="Layer_1-2" data-name="Layer 1">
    <g>
      <g>
        <path class="cls-5" d="M577.72,288.87c0,34.64-6.1,67.85-17.28,98.63-.05.16-.12.3-.17.45-7.46,20.44-17.18,39.81-28.84,57.8-48.33,74.6-130.15,125.5-224.19,131.41-6.08.38-12.22.57-18.4.57-5.27,0-10.51-.14-15.7-.43-32.2-1.72-63.01-8.72-91.56-20.16-39.32-15.73-74.36-39.85-102.92-70.13-27.05-28.69-48.29-62.92-61.86-100.8C5.93,355.8,0,323.03,0,288.87,0,129.34,129.32.01,288.85.01s288.87,129.32,288.87,288.85Z"/>
        <path class="cls-3" d="M560.27,387.95c-13.16,36.04-33.29,68.72-58.77,96.42-6.79,7.38-13.95,14.42-21.48,21.06-46.64,41.21-106.69,67.58-172.77,71.73-6.08.38-12.22.57-18.4.57-5.27,0-10.51-.14-15.7-.43-32.2-1.72-63.01-8.72-91.56-20.16-53.1-21.25-98.43-57.81-130.5-104.23-3.47-5-6.78-10.12-9.94-15.35-3.78-6.3-7.33-12.76-10.65-19.35-2.63-5.23-5.1-10.57-7.4-15.99-2.27-5.26-4.35-10.6-6.3-16.01,64.41-31.03,131.55-23.73,209.76,6.2,45.07,17.24,78.88,24.75,118.92,15.56,71.68-16.44,167.21-32.97,214.78-20.02Z"/>
        <path class="cls-5" d="M501.5,484.37c-6.79,7.38-13.95,14.42-21.48,21.06-13.58,1.62-26.79,2.37-39.63,2.37-91.96,0-165.57-38.18-222.74-67.84-5.18-2.69-10.22-5.3-15.1-7.8l-.41-.22c-95.47-55.33-157.56-22.77-171.63-13.73-2.63-5.23-5.1-10.57-7.4-15.99,20.35-12.25,88.18-43.05,187.6,14.47,4.86,2.47,9.86,5.07,15,7.73,67.6,35.07,158.96,82.48,275.78,59.94Z"/>
        <path class="cls-5" d="M220.86,466.31l-9.31,13.61c-48.97-33.5-114.92-32.97-160.45-27.01-3.47-5-6.78-10.12-9.94-15.35,9.65-1.46,20.4-2.73,31.88-3.52,59.8-4.13,110.91,7.03,147.82,32.27Z"/>
        <path class="cls-6" d="M269.98,18.17c43.28-5.77,109.42,9.03,148.32,29.18-15.31,4.46-45.58,10.15-58.47,15.36,15.67.74,39.97,1.32,55.52.66,37.03-1.57,49.07,14.48,73.79,39.44-23.41-.5-43.67-2.8-66.63,3.38-23.91,6.44-48.2,12.02-72.69,15.66,27.23,1.76,50.72,2.62,78.25,2.05,23.93.13,49.84-7.74,73.51-4.07,6.95,1.07,25.21,30.99,29.75,38.08-49.07,4.7-109.98,6.89-158.28-1.02-35.08-4.31-46.64-33.14-65.48-36.8-9.16-1.78-53.62,47.06-75.93,53.15-49.06,13.4-72.83,1.73-119.66-2.18-19.01-1.59-47.39,1.01-69.29-.24,5.45-12.66,13.19-24.69,21.2-35.81,28.87-7.94,72.89-12.74,98.07-20.7-31.47-2.7-47.2-5.37-79.93-5.01,53.06-55,111.82-85.36,187.92-91.13Z"/>
        <path class="cls-6" d="M492.52,167.36c14.93-1.41,29.25,2.01,43.88,4.9,7.05,15.66,13.61,31.57,19.6,47.72-13.62-.37-41.35-3.32-53.87-2.12-26.81,2.58-39.43,7.6-67.42,5.77-27.46-7.32-43.56-29.53-67.71-46.3,32.3-6.26,50.06-4.76,82.77-2.48,7.91.55,31.99-6.18,42.74-7.49Z"/>
        <path class="cls-6" d="M557.45,237.77c5.57,4.06,6.34,59.67,6.34,67.58-6.96-7.23-13.86-14.52-20.7-21.87-11.1-12.16-20.89-22.86-32.84-34.25,18.84-7.16,27.19-10.59,47.21-11.46Z"/>
        <path class="cls-6" d="M33.92,184.07c16.93,2.15,33.91,3.81,50.92,4.96-5.51,11.12-5.08,28.24-7.53,31.96l-5.37.1c-21.94-4.3-28.83-5.4-50.57-1.56,4.15-13.04,6.69-22.84,12.55-35.46Z"/>
        <path class="cls-6" d="M46.61,250.39c7.91-.8,19.34-.86,27.59-1.13-18.03,14.01-29.77,26.12-45.9,42.29-4.79,4.14-8.8,6.77-14.62,9.84-4.69-8.54-.27-38.2.3-49.6,10.5-.74,22.03-.98,32.63-1.4Z"/>
        <path class="cls-6" d="M184.65,193.88l40.6.36c-5.92,4.39-12.78,8.86-18.92,13.06-3.18,2.01-11.21,9.06-14.47,11.79l-.78-2.4,1.15,1.84c-3.16-7.3-1.91-12.35-7.57-24.66Z"/>
        <path class="cls-4" d="M577.72,288.88c0,8.42-.36,16.76-1.08,25l-15.78-11.11c.23-4.6.35-9.22.35-13.89,0-150.19-122.18-272.38-272.38-272.38S16.49,138.69,16.49,288.88c0,3.65.08,7.31.22,10.92l-16.06,8.47c-.43-6.41-.65-12.88-.65-19.39C0,129.32,129.31,0,288.84,0s288.88,129.32,288.88,288.88Z"/>
        <g>
          <path class="cls-1" d="M573.98,335.45c-4.53-5.69-9.35-11.4-14.34-17.13-22.27-25.43-48.15-50.92-68.35-74.56-11.61,12.47-23.11,25.04-34.52,37.68-31.54-30.87-70.67-61.44-103.83-91.43-6.02-5.44-44.9-39.68-50.22-43.09-29.61,29.13-143.43,131.19-176.94,146.51-17.48-11.28-29.03-21.71-44.37-35.83-19.34,17.68-41.96,38.81-63.64,57.57-5.12,4.42-10.18,8.71-15.13,12.79-.03.01-.04.04-.06.05,1.13,8.38,2.62,16.63,4.46,24.77.03-.01.04-.03.06-.04,5.12-3.07,9.55-6.1,14.79-9.79,2.01-1.4,4.13-2.9,6.45-4.55-1.92,3.38-3.69,6.49-5.41,9.4-4.13,7.03-7.89,12.97-12.25,19.09-.01.03-.04.05-.05.08,1.01,3.6,2.07,7.16,3.23,10.69.01,0,.04-.01.05-.03,5.47-1.92,10.6-3.9,15.44-6.06,22.76-10.13,39.21-24,54.14-51.95,1.14-2.15,2.24-4.34,3.26-6.57-8.52,4.74-17.63,10.05-26.22,14.55l22.22-54.78c8.1,14.94,28.11,45.87,33.18,58.22-11.48,14.21-18.25,19.47-33.14,30.22,30.78-6.13,78.93-24.26,95.3-51.7,14.65-24.54,19.02-37.23,37.79-59.77-10.35,41.61-15.66,66.25-40.86,101.03,15.93-7.12,28.51-11.72,45.26-16.91-8.86,16.7-13.5,24.94-30.07,35.04,18.12,2.4,34.39,11.44,51.96,16.49,26.41-16.8,46.75-32.16,67.65-56.02,7.5-9.52,29.34-42.7,28.24-53.19-8.47-2.41-38.62,39.9-59.9,30.2-1.97-4.65-.86-7.59,2.1-11.71,8.96-12.53,17.33-24.89,25.51-37.97-7.71-5.14-16.3-10.44-17.46-20.42-2.27-19.38,9.77-47.52,14.24-68,71.49,59.62,139.36,123.25,209.51,184.29,7.9,6.88,21.74,15.29,35.22,22.4,5.16,2.72,10.26,5.26,14.96,7.45.01.01.04.01.05.03.43-1.24.84-2.47,1.24-3.72-.01-.01-.04-.03-.05-.04-4.18-3.6-8.9-7.68-13.61-11.89-11.78-10.53-23.51-21.92-26.84-28.81-9.91-20.51-19.65-50.79-27.49-72.76,14.61,15.75,40.29,42.66,62.84,63.1,5.1,4.62,10.04,8.91,14.66,12.68.01.01.04.03.05.04.34-1.85.66-3.72.96-5.58-.01-.03-.04-.04-.05-.06Z"/>
          <path class="cls-1" d="M481.74,365.69c-14.24-9.05-26.92-19.42-39.63-30.47-14.47-12.7-28.79-25.58-42.94-38.63-3.2-2.92-16.75-15.73-19.42-17.47,7.07,21.87,24.72,47.03,33.61,68.64-39.23-14-44.38-28.72-69.78-55.89,4.43,25.58,8.22,45.17,17.2,70.01-16.69,17.15-39.44,27.58-60.7,38.5,4.22-.86,18.81-2.28,22.42-2.48,25.32-3.84,48.89-10.59,73.97-14.21,34.86-5.03,69.08-10.61,104.28-9.93l-.83-.56c-6.75-4.5-11.26-3.11-18.18-7.5Z"/>
        </g>
        <circle class="cls-7" cx="129.42" cy="223.57" r="39.5"/>
        <path class="cls-2" d="M560.44,387.5c-3.45,9.48-7.37,18.74-11.78,27.74-2.47,5.12-5.1,10.13-7.88,15.07-46.67,82.96-133.14,140.55-233.54,146.86l-34.1.14c-21.27-1.14-41.93-4.57-61.73-10.08-10.18-2.82-20.14-6.19-29.83-10.08.67-3.04,1.49-6.33,2.47-9.82,10.01-35.12,38.01-89.53,116.01-100.56,117.15-16.58,157.77-57.74,191.88-64.19,31.06-5.88,63.04,3.25,68.49,4.92Z"/>
        <path class="cls-5" d="M548.67,415.24c-2.47,5.12-5.1,10.13-7.88,15.07-28.14-7.02-67.98-5.44-107.14,35.43-2.64,2.59-5.32,5.26-8.21,8.12-28.16,27.92-75.28,74.66-114.1,84.33-27.54,6.85-53.66,9.78-78.35,9.78-7.31,0-14.5-.26-21.56-.74-10.18-2.82-20.14-6.19-29.83-10.08.67-3.04,1.49-6.33,2.47-9.82,37.32,6.11,78.39,6.02,123.27-5.16,34.42-8.58,79.53-53.31,106.47-80.04,2.93-2.89,5.64-5.57,8.11-7.99,43.53-45.44,91.22-48.62,126.74-38.9Z"/>
        <path class="cls-4" d="M531.44,445.76c-10.43,16.09-22.4,31.08-35.73,44.74-4.35,4.47-8.85,8.78-13.47,12.97-5.43,4.88-11.04,9.57-16.81,14.04-5.78,4.48-11.74,8.73-17.85,12.76-2.59,1.7-5.21,3.37-7.85,4.99-5.75,3.54-11.62,6.87-17.63,9.99-10.34,5.39-21.04,10.17-32.06,14.28-7.24,2.71-14.63,5.14-22.14,7.27-3.51,1-7.06,1.94-10.64,2.8-5.93,1.45-11.93,2.71-18.01,3.77-10.48,1.85-21.15,3.12-32,3.81-6.08.38-12.22.57-18.4.57-5.27,0-10.51-.14-15.7-.43-13.96-.74-27.68-2.49-41.07-5.16h-.01c-8.02-1.61-15.93-3.54-23.71-5.79-2.64-.76-5.26-1.57-7.86-2.4-6.24-2.01-12.38-4.21-18.42-6.62-.17-.06-.32-.13-.49-.19-17.14-6.85-33.47-15.31-48.81-25.17-3.59-2.32-7.12-4.7-10.6-7.16-2.15-1.52-4.29-3.07-6.39-4.65-2.9-2.16-5.75-4.39-8.55-6.67-7.68-6.21-15.04-12.81-22.05-19.78-2.22-2.19-4.39-4.43-6.53-6.7,30.26-18.72,73.46-40.65,115.79-45.5,8.23-.95,16.78-1.23,25.62-1.05h.01c47.81,1.01,103.75,16.09,159.83,18.84h.01c13.68.67,27.36.61,40.95-.58,16.44-1.42,32.71-4.5,48.63-9.88,27.92-9.46,47.79-8.73,61.92-3.08Z"/>
        <path class="cls-5" d="M465.42,517.51c-5.78,4.48-11.74,8.73-17.85,12.76-1.22-.47-2.41-.93-3.59-1.39-7.55-2.94-14.11-5.48-19.74-7.38-97.27-36.21-190.38-34.94-276.99,3.63-5,2.23-9.82,4.52-14.47,6.85-3.59-2.32-7.12-4.7-10.6-7.16-2.15-1.52-4.29-3.07-6.39-4.65,7.29-3.89,15.04-7.72,23.24-11.39,62.79-28.15,164.32-51.75,291.3-4.51,5.78,1.93,12.49,4.53,20.25,7.57,4.7,1.83,9.65,3.73,14.83,5.67Z"/>
        <path class="cls-5" d="M390.03,559.52c-7.24,2.71-14.63,5.14-22.14,7.27-3.51,1-7.06,1.94-10.64,2.8-43.68-9.69-85.81-8.91-125.16,2.56h-.01c-8.02-1.61-15.93-3.54-23.71-5.79-2.64-.76-5.26-1.57-7.86-2.4,7.69-3.21,15.97-6.22,24.79-8.87,57.83-17.32,114.43-11.54,164.73,4.43Z"/>
      </g>
      <g>
        <g>
          <path class="cls-1" d="M57.19,657.27c0-27.82,21.79-47.82,49.1-47.82s48.21,20.77,48.21,47.57-21.54,47.82-49.36,47.82-47.95-20.9-47.95-47.57ZM110.27,693.17c12.95,0,22.31-10.51,22.31-28.08,0-19.74-11.67-43.98-31.28-43.98-12.95,0-22.18,10.64-22.18,28.21,0,19.74,11.67,43.85,31.16,43.85Z"/>
          <path class="cls-1" d="M161.81,697.91c0-2.95,2.44-4.1,6.03-4.62,1.92-.26,2.05-5.13,2.05-10.9v-19.62c0-5-.26-11.15-2.31-11.41-4.87-.64-6.54-2.31-6.54-4.36,0-1.67.77-2.95,2.82-4.1,5.38-3.08,15.51-5.26,19.74-5.26,4.87,0,5.64,3.21,5.64,9.49v5.77c4.1-10,11.8-16.03,19.1-16.03,6.03,0,11.15,4.1,11.15,11.67s-3.85,11.92-9.49,11.92c-3.72,0-6.03-1.8-7.82-3.72-1.41-1.41-2.82-3.08-4.74-3.08-3.59,0-8.33,5.39-8.33,13.97v14.74c0,7.18.51,10.38,2.44,10.64,5.39.64,7.95,1.92,7.95,4.87,0,4.49-7.82,5.77-20,5.77-11.15,0-17.69-1.54-17.69-5.77Z"/>
          <path class="cls-1" d="M221.94,672.14c0-20.77,15.13-35.39,33.85-35.39,17.31,0,27.57,11.92,27.57,22.95,0,6.03-3.33,10.38-9.49,10.38h-34.36c1.54,11.15,8.59,18.33,19.74,18.33,7.82,0,13.08-3.46,16.8-6.79,1.41-1.15,2.69-2.05,4.1-2.05,2.18,0,3.59,1.41,3.59,4.23s-1.54,6.28-4.36,9.62c-4.74,5.9-13.59,11.41-25.9,11.41-18.72,0-31.54-13.46-31.54-32.69ZM259.37,661.63c5.26,0,7.69-1.67,7.69-5.39,0-6.03-4.49-11.41-12.05-11.41-8.72,0-14.49,6.67-15.64,16.92l20-.13Z"/>
          <path class="cls-1" d="M290.78,713.55c0-4.87,3.33-8.85,7.56-10.64-4.23-2.82-6.15-6.79-6.15-10.51,0-5.51,3.72-10.26,9.87-13.85-6.79-3.97-10.64-10.13-10.64-17.56,0-13.85,12.95-24.23,31.92-24.23,6.92,0,12.69,1.41,17.18,3.85,4.87-1.28,7.95-3.85,10.64-5.13,1.54-.77,2.95-1.28,4.1-1.28,2.05,0,3.08,1.79,3.08,3.72,0,3.33-3.21,8.98-7.95,13.08.9,2.31,1.41,4.74,1.41,7.31,0,13.85-13.46,24.36-32.05,24.36-3.85,0-7.44-.51-10.77-1.28-2.56,1.92-3.08,3.46-3.08,5.13,0,2.82,3.33,4.23,8.85,4.23,11.54,0,22.05-2.82,30.13-2.82s15,5.26,15,15.26c0,18.59-25.51,25.26-40.77,25.26-18.85,0-28.33-6.79-28.33-14.87ZM320.53,719.58c12.82,0,23.98-5.51,23.98-11.03,0-2.95-2.18-3.85-5.26-3.85-4.87,0-16.03,2.05-25.77,2.05-2.82,0-5.26-.26-7.44-.77-2.05,1.28-2.69,2.95-2.69,4.87,0,3.72,4.87,8.72,17.18,8.72ZM322.07,674.96c7.69,0,12.44-5.13,12.44-13.33s-4.74-16.92-13.33-16.92c-7.56,0-12.44,5-12.44,13.21s4.62,17.05,13.33,17.05Z"/>
          <path class="cls-1" d="M362.07,671.12c0-20.39,15.51-34.49,37.56-34.49,20.39,0,34.36,14.1,34.36,33.72,0,20.64-15.9,34.49-37.44,34.49s-34.49-14.1-34.49-33.72ZM402.2,695.99c7.18,0,12.82-6.28,12.82-17.44,0-14.1-8.85-33.21-21.15-33.21-6.79,0-12.82,5.9-12.82,17.57,0,13.97,8.59,33.08,21.15,33.08Z"/>
          <path class="cls-1" d="M485.15,697.91c0-2.95,2.44-4.1,6.03-4.62,1.92-.26,2.05-5.13,2.05-10.9v-13.72c0-13.33-3.33-18.59-11.15-18.59-7.05,0-13.97,5.64-13.97,21.41v10.9c0,7.44,0,10.51,1.92,10.9,3.85.77,6.15,1.67,6.15,4.62,0,4.49-7.18,5.77-17.69,5.77-11.15,0-17.69-1.54-17.69-5.77,0-2.95,2.44-4.1,6.03-4.62,1.92-.26,2.05-5.13,2.05-10.9v-19.62c0-5-.26-11.15-2.31-11.41-4.87-.64-6.54-2.31-6.54-4.36,0-1.67.77-2.95,2.82-4.1,5.38-3.08,15.51-5.26,19.74-5.26,4.87,0,5.64,3.21,5.64,9.49v4.87c4.23-9.1,12.69-15.13,23.46-15.13,11.92,0,20.77,7.44,20.77,24.1v21.41c0,7.44,0,10.51,1.92,10.9,3.85.64,6.15,1.67,6.15,4.62,0,4.49-7.18,5.77-17.69,5.77-11.15,0-17.69-1.54-17.69-5.77Z"/>
        </g>
        <g>
          <path class="cls-4" d="M84.74,837.16c-3.87,0-7.17.14-10.48.14-9.9,0-17.08-1.15-17.08-6.17,0-3.73,3.3-5.17,9.04-5.88,2.3-.29,2.87-6.17,2.87-12.91v-52.38c0-6.89-.57-12.77-2.87-13.06-5.74-.72-9.04-2.15-9.04-5.74,0-5.02,6.74-6.31,16.65-6.31,3.44,0,7.46.14,11.34.14,6.6,0,18.22-.86,24.54-.86,22.96,0,35.59,10.91,35.59,25.83,0,12.34-8.18,18.94-15.21,22.24,9.9,2.15,21.09,10.62,21.09,25.69,0,19.09-18.22,29.85-39.61,29.85-11.48,0-21.24-.57-26.83-.57ZM105.84,779.19c10.48,0,16.65-5.88,16.65-16.5,0-8.61-3.73-17.08-18.66-17.08-3.59,0-7.75.43-10.19,1.72-1.58.86-1.43,5.45-1.43,11.62v19.66c4.45.43,9.04.57,13.63.57ZM93.49,824.25c2.58,1.43,6.89,2.01,12.05,2.01,14.78,0,21.38-6.46,21.38-17.51,0-11.91-7.75-18.51-21.96-18.51-3.59,0-8.47.14-12.77.57v21.24c0,6.17,0,11.48,1.29,12.2Z"/>
          <path class="cls-4" d="M157.63,831.42c0-3.59,3.16-5.02,8.32-5.6,2.3-.29,2.87-6.31,2.87-13.2v-52.95c0-7.03-.57-13.06-2.87-13.35-5.17-.57-8.32-2.01-8.32-5.6,0-5.02,8.61-6.74,22.82-6.74s22.82,1.72,22.82,6.74c0,3.59-3.16,5.02-8.32,5.6-2.3.29-2.87,6.31-2.87,13.35v52.95c0,6.89.57,12.92,2.87,13.2,5.17.57,8.32,2.01,8.32,5.6,0,5.02-8.61,6.74-22.82,6.74s-22.82-1.72-22.82-6.74Z"/>
          <path class="cls-4" d="M210.58,831.42c0-3.59,3.44-4.88,9.04-5.6,2.3-.29,2.87-6.31,2.87-13.2v-52.66c0-6.89-.57-12.77-2.87-13.06-5.45-.72-8.75-2.15-8.75-5.74,0-5.02,7.17-6.31,17.94-6.31,2.73,0,6.46.14,10.62.14,4.88,0,13.49-.57,19.66-.57,28.56,0,40.9,13.34,40.9,31.71,0,21.53-17.65,34.44-41.04,34.44-3.59,0-8.47-.29-13.2-.86v12.91c0,6.89.57,13.06,2.87,13.2,6.89.43,10.76,2.01,10.76,5.6,0,5.02-9.33,6.74-25.26,6.74-14.92,0-23.53-1.72-23.53-6.74ZM256.36,788.51c13.06,0,19.09-7.17,19.09-20.66,0-11.62-3.59-21.53-18.94-21.53-3.59,0-6.46.57-8.61,1.43-2.01.86-2.15,5.74-2.15,12.2v27.55c3.59.86,7.32,1,10.62,1Z"/>
          <path class="cls-4" d="M306.01,786.22c0-31.14,24.39-53.53,54.96-53.53s53.96,23.25,53.96,53.24-24.11,53.53-55.25,53.53-53.67-23.39-53.67-53.24ZM365.41,826.4c14.49,0,24.97-11.77,24.97-31.43,0-22.1-13.06-49.22-35.01-49.22-14.49,0-24.83,11.91-24.83,31.57,0,22.1,13.06,49.08,34.87,49.08Z"/>
          <path class="cls-4" d="M423.38,786.36c0-30.85,22.67-53.67,51.66-53.67,11.48,0,21.38,3.73,28.27,8.32.72-3.16,2.58-5.31,5.31-5.31,6.89,0,11.34,14.78,11.34,25.97,0,10.04-3.73,13.63-7.03,13.63-4.45,0-6.17-4.16-9.18-11.62-4.59-11.19-16.79-18.51-28.27-18.65-17.51,0-27.55,14.06-27.55,33.15,0,22.96,15.07,44.63,35.88,44.63,9.61,0,18.51-3.88,23.82-12.05,2.73-4.3,4.45-9.76,8.04-9.76,3.16,0,4.88,2.87,4.88,7.75,0,10.91-7.89,27.12-14.92,27.12-2.44,0-4.45-1.29-5.17-3.59-6.74,4.16-15.5,7.17-26.26,7.17-27.12,0-50.8-22.82-50.8-53.1Z"/>
        </g>
        <g>
          <path class="cls-1" d="M63.7,860.38c.1-.4.5-.7.9-.7h.8c.35,0,.75.25.85.55l9.94,27.66h.25l9.79-27.66c.1-.3.5-.55.85-.55h.8c.4,0,.8.3.9.7l6.48,33.73c.15.7-.15,1.2-.9,1.2h-2.01c-.4,0-.8-.35-.9-.7l-4.47-25.85h-.2l-9.23,26.5c-.1.3-.55.55-.85.55h-.9c-.3,0-.75-.25-.85-.55l-9.34-26.5h-.2l-4.37,25.85c-.05.35-.5.7-.9.7h-2.01c-.75,0-1.05-.5-.9-1.2l6.47-33.73Z"/>
          <path class="cls-1" d="M110.03,871.62c6.07,0,10.49,4.47,10.49,10.54,0,.4-.05,1-.1,1.41-.05.6-.55,1-1.05,1h-16.86c.1,3.87,3.36,7.93,7.58,7.93,3.06,0,4.97-1.06,6.27-1.91.8-.55,1.15-.75,1.76.15l.6.85c.45.7.65.95-.2,1.61-1.41,1.1-4.47,2.66-8.48,2.66-7.03,0-11.24-5.52-11.24-12.15s4.22-12.1,11.24-12.1ZM116.8,881.61c-.1-3.41-2.81-6.62-6.78-6.62s-7.03,3.01-7.48,6.62h14.25Z"/>
          <path class="cls-1" d="M125.58,873.23c0-.55.5-1.1,1.1-1.1h.8c.5,0,.8.2.9.7l.5,1.76s2.96-2.96,7.78-2.96c6.73,0,8.38,4.37,8.38,10.34v12.25c0,.6-.55,1.1-1.1,1.1h-1.51c-.6,0-1.1-.5-1.1-1.1v-12.75c0-4.42-1.51-6.47-4.92-6.47-4.37,0-7.13,3.21-7.13,3.21v16.01c0,.6-.55,1.1-1.1,1.1h-1.51c-.6,0-1.1-.5-1.1-1.1v-20.98Z"/>
          <path class="cls-1" d="M149.82,875.34c-.7,0-1.15-.5-1.15-1.1v-1c0-.65.45-1.1,1.15-1.1h3.06v-6.42c0-.6.55-1.05,1.1-1.1l1.56-.1c.6-.05,1.05.5,1.05,1.1v6.52h6.83c.65,0,1.15.45,1.15,1.1v1c0,.6-.5,1.1-1.15,1.1h-6.83v13.85c0,2.41.75,3.31,2.06,3.31,2.16,0,3.61-.9,4.57-1.51.9-.55,1.2-.1,1.46.45l.45,1.06c.3.75.2,1.1-.4,1.51-1,.7-3.41,1.86-6.53,1.86-4.42,0-5.32-2.81-5.32-6.42v-14.1h-3.06Z"/>
          <path class="cls-1" d="M176.88,880.61c2.46,0,4.97.75,4.97.75.05-4.27-.5-6.37-3.81-6.37s-5.82,1-6.87,1.35c-.6.25-.9-.05-1.11-.6l-.5-1.36c-.2-.7.15-1,.7-1.26,1.15-.5,4.17-1.51,7.98-1.51,5.92,0,7.18,2.91,7.18,9.74v12.85c0,.6-.5,1.1-1.1,1.1h-.95c-.6,0-.8-.35-.95-.85l-.45-1.56c-1.2,1.2-3.61,2.96-7.18,2.96-4.07,0-7.18-2.91-7.18-7.58,0-4.42,3.31-7.68,9.29-7.68ZM175.42,892.51c2.86,0,5.37-1.61,6.38-3.11v-4.72c-.75-.4-2.61-.9-4.92-.9-3.21,0-5.62,1.56-5.62,4.52,0,2.36,1.61,4.22,4.17,4.22Z"/>
          <path class="cls-1" d="M192.29,861.28c0-.55.5-1.1,1.1-1.1h1.51c.55,0,1.1.55,1.1,1.1v32.93c0,.6-.55,1.1-1.1,1.1h-1.51c-.6,0-1.1-.5-1.1-1.1v-32.93Z"/>
          <path class="cls-1" d="M215.02,861.13c0-.5.45-.95.95-.95h1.96c.55,0,.95.45.95.95v14.66h20.38v-14.66c0-.5.4-.95.95-.95h1.96c.5,0,.95.45.95.95v33.23c0,.5-.45.95-.95.95h-1.96c-.55,0-.95-.45-.95-.95v-15.21h-20.38v15.21c0,.5-.4.95-.95.95h-1.96c-.5,0-.95-.45-.95-.95v-33.23Z"/>
          <path class="cls-1" d="M259.94,871.62c6.07,0,10.49,4.47,10.49,10.54,0,.4-.05,1-.1,1.41-.05.6-.55,1-1.05,1h-16.87c.1,3.87,3.36,7.93,7.58,7.93,3.06,0,4.97-1.06,6.27-1.91.8-.55,1.16-.75,1.76.15l.6.85c.45.7.65.95-.2,1.61-1.41,1.1-4.47,2.66-8.48,2.66-7.03,0-11.24-5.52-11.24-12.15s4.22-12.1,11.24-12.1ZM266.72,881.61c-.1-3.41-2.81-6.62-6.78-6.62s-7.03,3.01-7.48,6.62h14.25Z"/>
          <path class="cls-1" d="M282.98,880.61c2.46,0,4.97.75,4.97.75.05-4.27-.5-6.37-3.81-6.37s-5.82,1-6.88,1.35c-.6.25-.9-.05-1.1-.6l-.5-1.36c-.2-.7.15-1,.7-1.26,1.15-.5,4.17-1.51,7.98-1.51,5.92,0,7.18,2.91,7.18,9.74v12.85c0,.6-.5,1.1-1.1,1.1h-.95c-.6,0-.8-.35-.95-.85l-.45-1.56c-1.2,1.2-3.61,2.96-7.18,2.96-4.07,0-7.18-2.91-7.18-7.58,0-4.42,3.31-7.68,9.28-7.68ZM281.52,892.51c2.86,0,5.37-1.61,6.37-3.11v-4.72c-.75-.4-2.61-.9-4.92-.9-3.21,0-5.62,1.56-5.62,4.52,0,2.36,1.61,4.22,4.17,4.22Z"/>
          <path class="cls-1" d="M298.38,861.28c0-.55.5-1.1,1.1-1.1h1.51c.55,0,1.11.55,1.11,1.1v32.93c0,.6-.55,1.1-1.11,1.1h-1.51c-.6,0-1.1-.5-1.1-1.1v-32.93Z"/>
          <path class="cls-1" d="M307.62,875.34c-.7,0-1.15-.5-1.15-1.1v-1c0-.65.45-1.1,1.15-1.1h3.06v-6.42c0-.6.55-1.05,1.1-1.1l1.56-.1c.6-.05,1.05.5,1.05,1.1v6.52h6.83c.65,0,1.15.45,1.15,1.1v1c0,.6-.5,1.1-1.15,1.1h-6.83v13.85c0,2.41.75,3.31,2.06,3.31,2.16,0,3.61-.9,4.57-1.51.9-.55,1.2-.1,1.46.45l.45,1.06c.3.75.2,1.1-.4,1.51-1,.7-3.41,1.86-6.53,1.86-4.42,0-5.32-2.81-5.32-6.42v-14.1h-3.06Z"/>
          <path class="cls-1" d="M327.19,861.28c0-.55.5-1.1,1.1-1.1h1.51c.55,0,1.1.55,1.1,1.1v13.3s2.71-2.96,7.38-2.96c5.77,0,8.38,3.56,8.38,10.34v12.25c0,.6-.55,1.1-1.11,1.1h-1.55c-.6,0-1.1-.5-1.1-1.1v-12.25c0-4.42-1.3-6.98-4.87-6.98-4.42,0-7.13,3.31-7.13,3.31v15.91c0,.6-.55,1.1-1.1,1.1h-1.51c-.6,0-1.1-.5-1.1-1.1v-32.93Z"/>
          <path class="cls-1" d="M363.23,890.04l.75-.95c.5-.65.9-.9,1.61-.3.35.3,4.17,3.66,8.63,3.66,4.07,0,6.73-2.56,6.73-5.72,0-3.46-3.01-5.47-8.78-7.93-5.52-2.36-8.83-4.47-8.83-10.19,0-3.41,2.71-8.93,10.69-8.93,4.92,0,8.58,2.56,8.58,2.56.3.15.85.75.3,1.71l-.5.85c-.4.7-.95.7-1.76.25-2.11-1.25-3.86-2.01-6.67-2.01-5.32,0-6.93,3.41-6.93,5.52,0,3.56,2.56,5.12,6.78,6.88,6.78,2.76,11.14,5.32,11.14,11.14,0,5.22-4.97,9.24-10.84,9.24s-9.94-3.46-10.59-4.07c-.4-.35-1-.8-.3-1.71Z"/>
          <path class="cls-1" d="M389.42,873.23c0-.55.45-1.1,1.11-1.1h1.51c.6,0,1.1.55,1.1,1.1v12.55c0,4.62,1.51,6.73,4.87,6.73s5.52-2.16,6.58-3.36v-15.91c0-.55.45-1.1,1.05-1.1h1.56c.55,0,1.05.55,1.05,1.1v20.98c0,.6-.5,1.1-1.05,1.1h-.8c-.65,0-.9-.4-1.05-1l-.45-1.45c-.85.9-3.01,3.01-7.18,3.01-6.68,0-8.28-4.01-8.28-10.14v-12.5Z"/>
          <path class="cls-1" d="M415.07,873.23c0-.55.5-1.1,1.11-1.1h.8c.5,0,.8.2.9.7l.5,1.76s2.41-2.96,7.18-2.96c3.46,0,5.32,1.26,6.83,3.66.3-.2,3.61-3.66,8.28-3.66,6.73,0,8.33,4.37,8.33,10.34v12.25c0,.6-.5,1.1-1.11,1.1h-1.5c-.6,0-1.11-.5-1.11-1.1v-12.25c0-4.32-1.41-6.98-4.92-6.98-3.77,0-5.87,2.46-6.73,3.16.2,1,.3,2.61.3,3.81v12.25c0,.6-.5,1.1-1.1,1.1h-1.51c-.55,0-1.1-.5-1.1-1.1v-12.25c0-4.42-1.46-6.98-5.22-6.98-4.12,0-6.22,3.21-6.22,3.21v16.01c0,.6-.55,1.1-1.11,1.1h-1.5c-.6,0-1.11-.5-1.11-1.1v-20.98Z"/>
          <path class="cls-1" d="M455.57,873.23c0-.55.5-1.1,1.1-1.1h.8c.5,0,.8.2.9.7l.5,1.76s2.41-2.96,7.18-2.96c3.46,0,5.32,1.26,6.83,3.66.3-.2,3.61-3.66,8.28-3.66,6.73,0,8.33,4.37,8.33,10.34v12.25c0,.6-.5,1.1-1.1,1.1h-1.51c-.6,0-1.1-.5-1.1-1.1v-12.25c0-4.32-1.41-6.98-4.92-6.98-3.76,0-5.87,2.46-6.73,3.16.2,1,.3,2.61.3,3.81v12.25c0,.6-.5,1.1-1.1,1.1h-1.51c-.55,0-1.1-.5-1.1-1.1v-12.25c0-4.42-1.46-6.98-5.22-6.98-4.12,0-6.22,3.21-6.22,3.21v16.01c0,.6-.55,1.1-1.1,1.1h-1.51c-.6,0-1.1-.5-1.1-1.1v-20.98Z"/>
          <path class="cls-1" d="M495.12,863.44c0-1.61,1.2-2.81,2.71-2.81s2.76,1.2,2.76,2.81c0,1.46-1.2,2.71-2.76,2.71s-2.71-1.25-2.71-2.71ZM496.08,873.23c0-.55.5-1.1,1.1-1.1h1.51c.55,0,1.1.55,1.1,1.1v20.98c0,.6-.55,1.1-1.1,1.1h-1.51c-.6,0-1.1-.5-1.1-1.1v-20.98Z"/>
          <path class="cls-1" d="M505.06,875.34c-.7,0-1.15-.5-1.15-1.1v-1c0-.65.45-1.1,1.15-1.1h3.06v-6.42c0-.6.55-1.05,1.1-1.1l1.56-.1c.6-.05,1.05.5,1.05,1.1v6.52h6.83c.65,0,1.15.45,1.15,1.1v1c0,.6-.5,1.1-1.15,1.1h-6.83v13.85c0,2.41.76,3.31,2.06,3.31,2.16,0,3.61-.9,4.57-1.51.9-.55,1.2-.1,1.46.45l.45,1.06c.3.75.2,1.1-.4,1.51-1,.7-3.41,1.86-6.52,1.86-4.42,0-5.32-2.81-5.32-6.42v-14.1h-3.06Z"/>
        </g>
      </g>
    </g>
  </g>
</svg>