<?xml version="1.0" encoding="UTF-8"?>
<svg id="Layer_2" data-name="Layer 2" xmlns="http://www.w3.org/2000/svg" viewBox="0 0 959.62 445.98">
  <defs>
    <style>
      .cls-1 {
        fill: #fff;
      }
    </style>
  </defs>
  <g id="Layer_1-2" data-name="Layer 1">
    <g>
      <g>
        <path class="cls-1" d="M210.86,445.65l26.32-.11c-4.69.29-9.43.44-14.2.44-4.07,0-8.11-.11-12.12-.33Z"/>
        <path class="cls-1" d="M370.22,390.45c1.57-1.37,3.11-2.77,4.63-4.18-1.41,1.32-2.85,2.62-4.3,3.9-.11.1-.22.19-.33.28Z"/>
        <g>
          <path class="cls-1" d="M373.28,297.03c-24.39,7.98-56.15,34.14-133.02,46.54h-.01c-5.46-.84-10.87-1.7-16.23-2.54h-.01c-11.15-1.74-22.05-3.39-32.62-4.57h-.01c-5.92-3-11.63-5.96-17.14-8.82-3.97-2.06-7.83-4.06-11.58-5.97-76.75-44.4-129.11-20.63-144.82-11.17-1.75-4.06-3.36-8.18-4.86-12.36,49.72-23.95,101.55-18.31,161.92,4.79,34.79,13.31,60.89,19.1,91.8,12.01,32.9-7.54,72.31-15.11,106.58-17.91Z"/>
          <path class="cls-1" d="M158.4,334.66c-4.39.1-8.67.37-12.85.85-7.38.84-14.79,2.33-22.13,4.29-20.05-4.8-42.6-6.43-67.04-4.74-8.86.61-17.16,1.59-24.61,2.72-2.92-4.86-5.66-9.85-8.22-14.94,10.86-6.98,58.79-32.11,132.49,10.6l.32.17c.68.35,1.35.7,2.04,1.05Z"/>
          <path class="cls-1" d="M98.13,348.39c-15.71,6.41-30.37,14.24-42.73,21.68-5.71-6.49-11.04-13.31-15.96-20.44,16.97-2.22,37.62-3.47,58.69-1.24Z"/>
        </g>
        <path class="cls-1" d="M445.97,223c0,6.5-.28,12.94-.83,19.3l-12.18-8.58c.18-3.55.27-7.12.27-10.72,0-115.94-94.32-210.26-210.26-210.26S12.73,107.06,12.73,223c0,2.82.06,5.64.17,8.43l-12.4,6.54c-.33-4.95-.5-9.94-.5-14.97C0,99.83,99.82,0,222.97,0s223,99.83,223,223Z"/>
        <g>
          <path class="cls-1" d="M443.08,258.95c-3.5-4.39-7.22-8.8-11.07-13.22-17.19-19.63-37.17-39.31-52.76-57.56-8.96,9.63-17.84,19.33-26.65,29.09-24.35-23.83-54.55-47.43-80.15-70.58-4.65-4.2-34.66-30.63-38.77-33.26-22.86,22.49-110.72,101.27-136.59,113.1-13.49-8.71-22.41-16.76-34.25-27.66-14.93,13.65-32.39,29.96-49.13,44.44-3.95,3.41-7.86,6.72-11.68,9.87-.02.01-.03.03-.05.04.87,6.47,2.02,12.84,3.44,19.12.02,0,.03-.02.05-.03,3.95-2.37,7.37-4.71,11.42-7.56,1.55-1.08,3.19-2.24,4.98-3.51-1.48,2.61-2.85,5.01-4.18,7.26-3.19,5.43-6.09,10.01-9.46,14.74-.01.02-.03.04-.04.06.78,2.78,1.6,5.53,2.49,8.25.01,0,.03-.01.04-.02,4.22-1.48,8.18-3.01,11.92-4.68,17.57-7.82,30.27-18.53,41.79-40.1.88-1.66,1.73-3.35,2.52-5.07-6.58,3.66-13.61,7.76-20.24,11.23l17.15-42.29c6.25,11.53,21.7,35.41,25.61,44.94-8.86,10.97-14.09,15.03-25.58,23.33,23.76-4.73,60.93-18.73,73.57-39.91,11.31-18.94,14.68-28.74,29.17-46.14-7.99,32.12-12.09,51.14-31.54,77.99,12.3-5.5,22.01-9.05,34.94-13.05-6.84,12.89-10.42,19.25-23.21,27.05,13.99,1.85,26.55,8.83,40.11,12.73,20.39-12.97,36.09-24.83,52.22-43.25,5.79-7.35,22.65-32.96,21.8-41.06-6.54-1.86-29.81,30.8-46.24,23.31-1.52-3.59-.66-5.86,1.62-9.04,6.92-9.67,13.38-19.21,19.69-29.31-5.95-3.97-12.58-8.06-13.48-15.76-1.75-14.96,7.54-36.68,10.99-52.49,55.19,46.02,107.58,95.14,161.73,142.26,6.1,5.31,16.78,11.8,27.19,17.29,3.98,2.1,7.92,4.06,11.55,5.75.01.01.03.01.04.02.33-.96.65-1.91.96-2.87-.01,0-.03-.02-.04-.03-3.23-2.78-6.87-5.93-10.51-9.18-9.09-8.13-18.15-16.92-20.72-22.24-7.65-15.83-15.17-39.21-21.22-56.17,11.28,12.16,31.1,32.93,48.51,48.71,3.94,3.57,7.75,6.88,11.32,9.79.01.01.03.02.04.03.26-1.43.51-2.87.74-4.31,0-.02-.03-.03-.04-.05Z"/>
          <path class="cls-1" d="M371.88,282.29c-10.99-6.98-20.78-14.99-30.59-23.52-11.17-9.8-22.22-19.75-33.15-29.82-2.47-2.26-12.93-12.14-14.99-13.49,5.46,16.88,19.08,36.3,25.94,52.99-30.28-10.81-34.26-22.17-53.87-43.15,3.42,19.75,6.34,34.87,13.28,54.04-12.88,13.24-30.45,21.29-46.86,29.72,3.26-.67,14.52-1.76,17.31-1.92,19.55-2.97,37.74-8.17,57.1-10.97,26.91-3.88,53.32-8.19,80.5-7.67l-.64-.43c-5.21-3.48-8.69-2.4-14.03-5.79Z"/>
        </g>
        <circle class="cls-1" cx="99.91" cy="172.59" r="30.49"/>
        <g>
          <path class="cls-1" d="M417.46,332.17c-.42.75-.84,1.49-1.28,2.23-.56.97-1.12,1.93-1.7,2.88-11.04-2.91-25.73-2.43-45.26,4.19-6.66,2.25-13.38,4-20.17,5.33,25.4-19.04,50.12-19.19,68.41-14.63Z"/>
          <path class="cls-1" d="M432.63,299.13c-.04.12-.09.23-.13.35-.95,2.61-1.95,5.19-3,7.75-.8,1.98-1.64,3.95-2.51,5.9-.32.72-.64,1.45-.97,2.17-.49,1.06-.98,2.12-1.48,3.18-.33.69-.66,1.38-1,2.06-27.2-7.44-63.66-5.09-97.04,29.21-10,.73-20.07.73-30.12.23h-.01c-18.88-.93-37.73-3.57-56.11-6.41,76.87-12.4,108.63-38.56,133.02-46.54,2.21-.73,4.36-1.3,6.48-1.7,23.98-4.54,48.66,2.51,52.87,3.8Z"/>
        </g>
        <g>
          <path class="cls-1" d="M275.78,439.69c-33.72-7.48-66.24-6.88-96.62,1.98h-.01s0,0,0,0c0,0,0,0,0,0h.01c1.09.22,2.18.43,3.28.62.4.08.8.15,1.2.22,1.47.27,2.94.51,4.42.74.81.13,1.62.26,2.43.37.26.04.52.08.78.11.73.11,1.46.21,2.2.3.69.1,1.38.19,2.07.27,2.05.26,4.1.48,6.17.67.91.09,1.82.17,2.73.24.2.02.4.04.61.05.84.07,1.68.13,2.52.19,1.09.08,2.19.14,3.29.2,4.01.22,8.05.33,12.12.33,4.77,0,9.51-.15,14.2-.44.95-.06,1.89-.13,2.83-.2,1.24-.09,2.48-.19,3.71-.31.81-.07,1.62-.15,2.42-.24.26-.02.51-.05.77-.08.67-.07,1.33-.14,2-.22,1.09-.12,2.18-.26,3.26-.4.99-.13,1.99-.27,2.98-.41,1.18-.17,2.35-.35,3.53-.54,1.06-.17,2.13-.35,3.2-.54,1.17-.21,2.34-.42,3.51-.64.91-.18,1.82-.36,2.73-.55.54-.11,1.07-.22,1.6-.34,2.03-.43,4.05-.89,6.06-1.38"/>
          <path class="cls-1" d="M359.19,399.56s.06-.05.09-.07c2.01-1.55,3.99-3.14,5.94-4.77.62-.51,1.24-1.03,1.86-1.56,1.05-.88,2.1-1.78,3.14-2.71.68-.59,1.36-1.19,2.04-1.8.87-.79,1.73-1.58,2.59-2.38,1.49-1.39,2.97-2.8,4.42-4.23.61-.6,1.21-1.2,1.81-1.8.18-.18.37-.36.54-.55.35-.35.7-.7,1.04-1.05.56-.57,1.11-1.14,1.65-1.72.28-.29.56-.59.84-.89.52-.54,1.04-1.09,1.55-1.65,1.03-1.1,2.04-2.22,3.03-3.34.48-.54.96-1.09,1.43-1.63.47-.53.93-1.06,1.38-1.6.57-.67,1.14-1.34,1.71-2.02.6-.72,1.2-1.44,1.79-2.18,1.31-1.6,2.59-3.21,3.84-4.85.4-.52.81-1.05,1.21-1.59,1.24-1.64,2.46-3.3,3.65-4.98.45-.62.88-1.24,1.31-1.86.53-.76,1.06-1.52,1.57-2.29.46-.67.91-1.34,1.35-2.01.43-.64.85-1.28,1.27-1.93-10.91-4.36-26.25-4.92-47.8,2.38-12.29,4.16-24.85,6.53-37.54,7.63-10.49.92-21.05.97-31.61.45h-.01c-23.25-1.14-46.46-5.02-68.68-8.49h-.01c-19.17-3-37.59-5.69-54.69-6.05h-.01c-6.83-.14-13.43.08-19.78.81-32.67,3.74-66.01,20.67-89.37,35.11,0,.01-.01.01-.01.01.64.68,1.28,1.35,1.94,2.02.87.9,1.75,1.8,2.65,2.69.14.16.3.31.45.46,1.04,1.04,2.09,2.06,3.16,3.07.77.75,1.55,1.48,2.34,2.21.05.06.11.11.17.16,1.85,1.71,3.72,3.4,5.63,5.04.23.2.46.4.69.59.65.57,1.31,1.13,1.97,1.68,1.01.85,2.03,1.69,3.06,2.52.76.62,1.52,1.23,2.28,1.82.52.42,1.04.83,1.57,1.23.91.71,1.83,1.41,2.75,2.1,5.63-3,11.61-5.96,17.94-8.79,48.47-21.73,126.85-39.95,224.87-3.48,4.46,1.49,9.64,3.5,15.63,5.84,3.63,1.41,7.45,2.88,11.45,4.38"/>
          <path class="cls-1" d="M301.08,431.92c.28-.11.57-.21.85-.32,1.11-.42,2.22-.85,3.33-1.29.49-.19.99-.39,1.48-.59.92-.37,1.84-.75,2.75-1.14.47-.2.94-.4,1.41-.6.47-.21.94-.41,1.41-.62.95-.41,1.9-.83,2.83-1.25.33-.15.65-.29.97-.44.89-.42,1.79-.84,2.67-1.26,2.38-1.13,4.72-2.3,7.05-3.51.18-.1.37-.19.55-.29.98-.51,1.95-1.02,2.91-1.55.62-.34,1.24-.68,1.86-1.03.88-.48,1.74-.97,2.6-1.46,1.92-1.1,3.81-2.22,5.69-3.38,1.23-.75,2.45-1.52,3.67-2.31.65-.41,1.29-.82,1.93-1.24.16-.1.31-.2.46-.3.02-.01.04-.03.06-.04-.02.01-.04.03-.06.04-.94-.36-1.86-.72-2.77-1.07-5.83-2.27-10.89-4.23-15.24-5.7-75.09-27.95-146.96-26.97-213.82,2.8-3.86,1.72-7.58,3.49-11.17,5.29,0,0,0,0,0,0,.38.24.76.49,1.14.72,2.3,1.47,4.63,2.89,6.99,4.26,2.35,1.38,4.74,2.72,7.15,4,1.2.65,2.42,1.29,3.64,1.91,2.33,1.2,4.68,2.36,7.06,3.46.3.15.6.29.9.42,1.06.49,2.12.97,3.18,1.45,1.39.61,2.78,1.21,4.18,1.8,1.14.48,2.29.95,3.44,1.41.13.05.25.1.38.15.06.02.12.05.18.07,1.05.42,2.1.83,3.15,1.23.64.24,1.29.48,1.94.72.59.22,1.18.44,1.78.65,1.15.41,2.31.82,3.47,1.22.05.01.1.03.15.05,1.07.36,2.14.71,3.21,1.06.11.04.23.07.34.11,5.94-2.48,12.33-4.8,19.14-6.85,44.64-13.37,88.33-8.91,127.16,3.42"/>
        </g>
      </g>
      <g>
        <g>
          <path class="cls-1" d="M492.31,126.79c0-28.06,21.98-48.23,49.52-48.23s48.62,20.95,48.62,47.97-21.72,48.23-49.78,48.23-48.36-21.08-48.36-47.97ZM545.84,162.99c13.06,0,22.5-10.6,22.5-28.32,0-19.91-11.77-44.35-31.55-44.35-13.06,0-22.37,10.73-22.37,28.45,0,19.91,11.77,44.22,31.42,44.22Z"/>
          <path class="cls-1" d="M597.82,167.78c0-2.97,2.46-4.14,6.08-4.66,1.94-.26,2.07-5.17,2.07-10.99v-19.78c0-5.04-.26-11.25-2.33-11.51-4.91-.65-6.6-2.33-6.6-4.4,0-1.68.78-2.97,2.85-4.14,5.43-3.1,15.65-5.3,19.91-5.3,4.91,0,5.69,3.23,5.69,9.57v5.82c4.14-10.09,11.9-16.16,19.27-16.16,6.08,0,11.25,4.14,11.25,11.77s-3.88,12.02-9.57,12.02c-3.75,0-6.08-1.81-7.89-3.75-1.42-1.42-2.84-3.1-4.78-3.1-3.62,0-8.4,5.43-8.4,14.09v14.87c0,7.24.52,10.47,2.46,10.73,5.43.65,8.02,1.94,8.02,4.91,0,4.53-7.89,5.82-20.17,5.82-11.25,0-17.84-1.55-17.84-5.82Z"/>
          <path class="cls-1" d="M658.47,141.79c0-20.95,15.26-35.69,34.14-35.69,17.46,0,27.8,12.03,27.8,23.15,0,6.08-3.36,10.47-9.57,10.47h-34.65c1.55,11.25,8.66,18.49,19.91,18.49,7.89,0,13.19-3.49,16.94-6.85,1.42-1.16,2.72-2.07,4.14-2.07,2.2,0,3.62,1.42,3.62,4.27s-1.55,6.34-4.4,9.7c-4.79,5.95-13.71,11.51-26.12,11.51-18.88,0-31.81-13.58-31.81-32.97ZM696.22,131.18c5.3,0,7.76-1.68,7.76-5.43,0-6.08-4.53-11.51-12.15-11.51-8.79,0-14.61,6.72-15.78,17.07l20.17-.13Z"/>
          <path class="cls-1" d="M727.9,183.55c0-4.91,3.36-8.92,7.63-10.73-4.27-2.84-6.21-6.85-6.21-10.6,0-5.56,3.75-10.34,9.96-13.97-6.85-4.01-10.73-10.22-10.73-17.71,0-13.97,13.06-24.44,32.2-24.44,6.98,0,12.8,1.42,17.33,3.88,4.91-1.29,8.02-3.88,10.73-5.17,1.55-.78,2.97-1.29,4.14-1.29,2.07,0,3.1,1.81,3.1,3.75,0,3.36-3.23,9.05-8.02,13.19.9,2.33,1.42,4.78,1.42,7.37,0,13.97-13.58,24.57-32.33,24.57-3.88,0-7.5-.52-10.86-1.29-2.59,1.94-3.1,3.49-3.1,5.17,0,2.84,3.36,4.27,8.92,4.27,11.64,0,22.24-2.84,30.39-2.84s15.13,5.3,15.13,15.39c0,18.75-25.73,25.47-41.12,25.47-19.01,0-28.58-6.85-28.58-15ZM757.9,189.63c12.93,0,24.18-5.56,24.18-11.12,0-2.97-2.2-3.88-5.3-3.88-4.91,0-16.16,2.07-25.99,2.07-2.84,0-5.3-.26-7.5-.78-2.07,1.29-2.72,2.97-2.72,4.91,0,3.75,4.91,8.79,17.33,8.79ZM759.45,144.63c7.76,0,12.54-5.17,12.54-13.45s-4.78-17.07-13.45-17.07c-7.63,0-12.54,5.04-12.54,13.32s4.65,17.2,13.45,17.2Z"/>
          <path class="cls-1" d="M799.8,140.75c0-20.56,15.65-34.78,37.89-34.78,20.56,0,34.65,14.22,34.65,34.01,0,20.82-16.03,34.78-37.76,34.78s-34.78-14.22-34.78-34.01ZM840.27,165.84c7.24,0,12.93-6.34,12.93-17.59,0-14.22-8.92-33.49-21.34-33.49-6.85,0-12.93,5.95-12.93,17.72,0,14.09,8.66,33.36,21.34,33.36Z"/>
          <path class="cls-1" d="M923.93,167.78c0-2.97,2.46-4.14,6.08-4.66,1.94-.26,2.07-5.17,2.07-10.99v-13.84c0-13.45-3.36-18.75-11.25-18.75-7.11,0-14.09,5.69-14.09,21.59v10.99c0,7.5,0,10.6,1.94,10.99,3.88.78,6.21,1.68,6.21,4.66,0,4.53-7.24,5.82-17.84,5.82-11.25,0-17.84-1.55-17.84-5.82,0-2.97,2.46-4.14,6.08-4.66,1.94-.26,2.07-5.17,2.07-10.99v-19.78c0-5.04-.26-11.25-2.33-11.51-4.91-.65-6.6-2.33-6.6-4.4,0-1.68.78-2.97,2.85-4.14,5.43-3.1,15.65-5.3,19.91-5.3,4.91,0,5.69,3.23,5.69,9.57v4.91c4.27-9.18,12.8-15.26,23.66-15.26,12.02,0,20.95,7.5,20.95,24.31v21.59c0,7.5,0,10.6,1.94,10.99,3.88.65,6.21,1.68,6.21,4.66,0,4.53-7.24,5.82-17.84,5.82-11.25,0-17.84-1.55-17.84-5.82Z"/>
        </g>
        <g>
          <path class="cls-1" d="M520.1,308.22c-3.91,0-7.24.14-10.57.14-9.99,0-17.22-1.16-17.22-6.22,0-3.76,3.33-5.21,9.12-5.93,2.32-.29,2.89-6.22,2.89-13.03v-52.83c0-6.95-.58-12.88-2.89-13.17-5.79-.72-9.12-2.17-9.12-5.79,0-5.07,6.8-6.37,16.79-6.37,3.47,0,7.53.14,11.43.14,6.66,0,18.38-.87,24.75-.87,23.16,0,35.89,11,35.89,26.05,0,12.45-8.25,19.1-15.34,22.43,9.99,2.17,21.28,10.71,21.28,25.91,0,19.25-18.38,30.1-39.95,30.1-11.58,0-21.42-.58-27.06-.58ZM541.37,249.75c10.57,0,16.79-5.93,16.79-16.64,0-8.68-3.76-17.22-18.82-17.22-3.62,0-7.82.43-10.28,1.74-1.59.87-1.45,5.5-1.45,11.72v19.83c4.49.43,9.12.58,13.75.58ZM528.92,295.19c2.61,1.45,6.95,2.03,12.16,2.03,14.91,0,21.56-6.51,21.56-17.66,0-12.01-7.82-18.67-22.14-18.67-3.62,0-8.54.14-12.88.58v21.42c0,6.22,0,11.58,1.3,12.3Z"/>
          <path class="cls-1" d="M593.61,302.43c0-3.62,3.18-5.07,8.39-5.64,2.32-.29,2.89-6.37,2.89-13.32v-53.41c0-7.09-.58-13.17-2.89-13.46-5.21-.58-8.39-2.03-8.39-5.64,0-5.07,8.68-6.8,23.01-6.8s23.01,1.74,23.01,6.8c0,3.62-3.18,5.07-8.39,5.64-2.32.29-2.89,6.37-2.89,13.46v53.41c0,6.95.58,13.03,2.89,13.32,5.21.58,8.39,2.03,8.39,5.64,0,5.07-8.68,6.8-23.01,6.8s-23.01-1.74-23.01-6.8Z"/>
          <path class="cls-1" d="M647.02,302.43c0-3.62,3.47-4.92,9.12-5.64,2.32-.29,2.89-6.37,2.89-13.32v-53.12c0-6.95-.58-12.88-2.89-13.17-5.5-.72-8.83-2.17-8.83-5.79,0-5.07,7.24-6.37,18.09-6.37,2.75,0,6.51.14,10.71.14,4.92,0,13.6-.58,19.83-.58,28.8,0,41.25,13.46,41.25,31.98,0,21.71-17.8,34.74-41.39,34.74-3.62,0-8.54-.29-13.31-.87v13.03c0,6.95.58,13.17,2.89,13.32,6.95.43,10.85,2.03,10.85,5.64,0,5.07-9.41,6.8-25.47,6.8-15.05,0-23.74-1.74-23.74-6.8ZM693.19,259.15c13.17,0,19.25-7.24,19.25-20.84,0-11.72-3.62-21.71-19.1-21.71-3.62,0-6.51.58-8.68,1.45-2.03.87-2.17,5.79-2.17,12.3v27.79c3.62.87,7.38,1.01,10.71,1.01Z"/>
          <path class="cls-1" d="M743.26,256.84c0-31.41,24.6-53.98,55.43-53.98s54.42,23.45,54.42,53.69-24.31,53.98-55.72,53.98-54.13-23.59-54.13-53.69ZM803.17,297.36c14.62,0,25.18-11.87,25.18-31.7,0-22.29-13.17-49.64-35.31-49.64-14.62,0-25.04,12.01-25.04,31.84,0,22.29,13.17,49.5,35.17,49.5Z"/>
          <path class="cls-1" d="M861.64,256.98c0-31.12,22.87-54.13,52.1-54.13,11.58,0,21.56,3.76,28.51,8.39.72-3.18,2.61-5.36,5.36-5.36,6.95,0,11.43,14.91,11.43,26.2,0,10.13-3.76,13.75-7.09,13.75-4.49,0-6.22-4.2-9.26-11.72-4.63-11.29-16.93-18.67-28.51-18.81-17.66,0-27.79,14.18-27.79,33.43,0,23.16,15.2,45.01,36.18,45.01,9.7,0,18.67-3.91,24.02-12.16,2.75-4.34,4.49-9.84,8.11-9.84,3.18,0,4.92,2.89,4.92,7.82,0,11-7.96,27.35-15.05,27.35-2.46,0-4.49-1.3-5.21-3.62-6.8,4.2-15.63,7.24-26.49,7.24-27.35,0-51.23-23.01-51.23-53.55Z"/>
        </g>
        <g>
          <path class="cls-1" d="M498.87,331.64c.1-.41.51-.71.91-.71h.81c.35,0,.76.25.86.56l10.02,27.89h.25l9.87-27.89c.1-.3.51-.56.86-.56h.81c.41,0,.81.3.91.71l6.53,34.02c.15.71-.15,1.22-.91,1.22h-2.03c-.4,0-.81-.35-.91-.71l-4.51-26.07h-.2l-9.31,26.73c-.1.3-.56.56-.86.56h-.91c-.3,0-.76-.25-.86-.56l-9.42-26.73h-.2l-4.4,26.07c-.05.35-.51.71-.91.71h-2.02c-.76,0-1.06-.51-.91-1.22l6.53-34.02Z"/>
          <path class="cls-1" d="M545.6,342.97c6.13,0,10.58,4.51,10.58,10.63,0,.4-.05,1.01-.1,1.42-.05.61-.56,1.01-1.06,1.01h-17.01c.1,3.9,3.39,8,7.64,8,3.09,0,5.01-1.06,6.33-1.92.81-.56,1.16-.76,1.77.15l.61.86c.46.71.66.96-.2,1.62-1.42,1.11-4.51,2.68-8.56,2.68-7.09,0-11.34-5.57-11.34-12.25s4.25-12.2,11.34-12.2ZM552.43,353.05c-.1-3.44-2.83-6.68-6.83-6.68s-7.09,3.04-7.54,6.68h14.38Z"/>
          <path class="cls-1" d="M561.29,344.6c0-.56.51-1.11,1.11-1.11h.81c.51,0,.81.2.91.71l.51,1.77s2.99-2.99,7.85-2.99c6.78,0,8.45,4.4,8.45,10.43v12.35c0,.61-.56,1.11-1.11,1.11h-1.52c-.61,0-1.11-.51-1.11-1.11v-12.86c0-4.45-1.52-6.53-4.96-6.53-4.41,0-7.19,3.24-7.19,3.24v16.15c0,.61-.56,1.11-1.11,1.11h-1.52c-.61,0-1.11-.51-1.11-1.11v-21.16Z"/>
          <path class="cls-1" d="M585.74,346.72c-.71,0-1.16-.51-1.16-1.11v-1.01c0-.66.46-1.11,1.16-1.11h3.09v-6.48c0-.61.56-1.06,1.11-1.11l1.57-.1c.61-.05,1.06.51,1.06,1.11v6.58h6.89c.66,0,1.16.46,1.16,1.11v1.01c0,.61-.51,1.11-1.16,1.11h-6.89v13.97c0,2.43.76,3.34,2.08,3.34,2.18,0,3.65-.91,4.61-1.52.91-.56,1.22-.1,1.47.46l.45,1.06c.3.76.2,1.11-.4,1.52-1.01.71-3.44,1.87-6.58,1.87-4.45,0-5.36-2.83-5.36-6.48v-14.22h-3.09Z"/>
          <path class="cls-1" d="M613.02,352.04c2.48,0,5.01.76,5.01.76.05-4.3-.51-6.43-3.85-6.43s-5.87,1.01-6.93,1.37c-.61.25-.91-.05-1.12-.61l-.5-1.37c-.2-.71.15-1.01.71-1.27,1.16-.5,4.2-1.52,8.05-1.52,5.97,0,7.24,2.94,7.24,9.82v12.96c0,.61-.51,1.11-1.11,1.11h-.96c-.61,0-.81-.35-.96-.86l-.46-1.57c-1.22,1.22-3.65,2.99-7.24,2.99-4.1,0-7.24-2.94-7.24-7.64,0-4.46,3.34-7.74,9.37-7.74ZM611.55,364.04c2.89,0,5.42-1.62,6.43-3.14v-4.76c-.76-.4-2.63-.91-4.96-.91-3.24,0-5.67,1.57-5.67,4.56,0,2.38,1.62,4.25,4.2,4.25Z"/>
          <path class="cls-1" d="M628.56,332.55c0-.56.51-1.11,1.11-1.11h1.52c.56,0,1.11.56,1.11,1.11v33.21c0,.61-.56,1.11-1.11,1.11h-1.52c-.61,0-1.11-.51-1.11-1.11v-33.21Z"/>
          <path class="cls-1" d="M651.49,332.39c0-.5.46-.96.96-.96h1.98c.56,0,.96.46.96.96v14.78h20.55v-14.78c0-.5.41-.96.96-.96h1.98c.5,0,.96.46.96.96v33.51c0,.51-.46.96-.96.96h-1.98c-.56,0-.96-.46-.96-.96v-15.34h-20.55v15.34c0,.51-.4.96-.96.96h-1.98c-.51,0-.96-.46-.96-.96v-33.51Z"/>
          <path class="cls-1" d="M696.8,342.97c6.13,0,10.58,4.51,10.58,10.63,0,.4-.05,1.01-.1,1.42-.05.61-.56,1.01-1.06,1.01h-17.01c.1,3.9,3.39,8,7.64,8,3.09,0,5.01-1.06,6.33-1.92.81-.56,1.17-.76,1.77.15l.61.86c.46.71.66.96-.2,1.62-1.42,1.11-4.51,2.68-8.56,2.68-7.09,0-11.34-5.57-11.34-12.25s4.25-12.2,11.34-12.2ZM703.63,353.05c-.1-3.44-2.83-6.68-6.83-6.68s-7.09,3.04-7.54,6.68h14.38Z"/>
          <path class="cls-1" d="M720.03,352.04c2.48,0,5.01.76,5.01.76.05-4.3-.51-6.43-3.85-6.43s-5.87,1.01-6.94,1.37c-.61.25-.91-.05-1.11-.61l-.51-1.37c-.2-.71.15-1.01.71-1.27,1.16-.5,4.2-1.52,8.05-1.52,5.97,0,7.24,2.94,7.24,9.82v12.96c0,.61-.51,1.11-1.11,1.11h-.96c-.61,0-.81-.35-.96-.86l-.46-1.57c-1.22,1.22-3.64,2.99-7.24,2.99-4.1,0-7.24-2.94-7.24-7.64,0-4.46,3.34-7.74,9.36-7.74ZM718.56,364.04c2.88,0,5.42-1.62,6.43-3.14v-4.76c-.76-.4-2.63-.91-4.96-.91-3.24,0-5.67,1.57-5.67,4.56,0,2.38,1.62,4.25,4.2,4.25Z"/>
          <path class="cls-1" d="M735.57,332.55c0-.56.51-1.11,1.11-1.11h1.52c.56,0,1.12.56,1.12,1.11v33.21c0,.61-.56,1.11-1.12,1.11h-1.52c-.61,0-1.11-.51-1.11-1.11v-33.21Z"/>
          <path class="cls-1" d="M744.88,346.72c-.71,0-1.16-.51-1.16-1.11v-1.01c0-.66.46-1.11,1.16-1.11h3.09v-6.48c0-.61.56-1.06,1.11-1.11l1.57-.1c.61-.05,1.06.51,1.06,1.11v6.58h6.89c.66,0,1.16.46,1.16,1.11v1.01c0,.61-.51,1.11-1.16,1.11h-6.89v13.97c0,2.43.76,3.34,2.08,3.34,2.18,0,3.65-.91,4.61-1.52.91-.56,1.22-.1,1.47.46l.45,1.06c.3.76.2,1.11-.4,1.52-1.01.71-3.44,1.87-6.58,1.87-4.45,0-5.36-2.83-5.36-6.48v-14.22h-3.09Z"/>
          <path class="cls-1" d="M764.62,332.55c0-.56.51-1.11,1.11-1.11h1.52c.56,0,1.11.56,1.11,1.11v13.41s2.73-2.99,7.44-2.99c5.82,0,8.46,3.59,8.46,10.43v12.35c0,.61-.56,1.11-1.12,1.11h-1.57c-.61,0-1.11-.51-1.11-1.11v-12.35c0-4.46-1.32-7.04-4.91-7.04-4.46,0-7.19,3.34-7.19,3.34v16.05c0,.61-.56,1.11-1.11,1.11h-1.52c-.61,0-1.11-.51-1.11-1.11v-33.21Z"/>
          <path class="cls-1" d="M800.97,361.55l.76-.96c.51-.66.91-.91,1.62-.3.35.3,4.2,3.7,8.71,3.7,4.1,0,6.78-2.58,6.78-5.77,0-3.49-3.04-5.52-8.86-8-5.57-2.38-8.91-4.51-8.91-10.28,0-3.44,2.73-9.01,10.78-9.01,4.96,0,8.66,2.58,8.66,2.58.3.15.86.76.3,1.72l-.5.86c-.41.71-.96.71-1.77.25-2.13-1.26-3.9-2.02-6.73-2.02-5.37,0-6.99,3.44-6.99,5.57,0,3.59,2.58,5.16,6.83,6.94,6.83,2.78,11.24,5.37,11.24,11.24,0,5.27-5.01,9.32-10.93,9.32s-10.02-3.49-10.68-4.1c-.41-.35-1.01-.81-.3-1.72Z"/>
          <path class="cls-1" d="M827.39,344.6c0-.56.46-1.11,1.12-1.11h1.52c.61,0,1.11.56,1.11,1.11v12.65c0,4.66,1.52,6.78,4.91,6.78s5.57-2.18,6.63-3.39v-16.05c0-.56.45-1.11,1.06-1.11h1.57c.56,0,1.06.56,1.06,1.11v21.16c0,.61-.51,1.11-1.06,1.11h-.81c-.66,0-.91-.41-1.06-1.01l-.46-1.47c-.86.91-3.04,3.04-7.24,3.04-6.73,0-8.35-4.05-8.35-10.22v-12.61Z"/>
          <path class="cls-1" d="M853.25,344.6c0-.56.51-1.11,1.12-1.11h.81c.51,0,.81.2.91.71l.5,1.77s2.43-2.99,7.24-2.99c3.49,0,5.36,1.27,6.88,3.7.3-.2,3.65-3.7,8.35-3.7,6.78,0,8.4,4.4,8.4,10.43v12.35c0,.61-.51,1.11-1.12,1.11h-1.52c-.61,0-1.12-.51-1.12-1.11v-12.35c0-4.35-1.42-7.04-4.96-7.04-3.8,0-5.92,2.48-6.78,3.19.2,1.01.3,2.63.3,3.85v12.35c0,.61-.51,1.11-1.11,1.11h-1.52c-.56,0-1.11-.51-1.11-1.11v-12.35c0-4.46-1.47-7.04-5.26-7.04-4.15,0-6.28,3.24-6.28,3.24v16.15c0,.61-.56,1.11-1.12,1.11h-1.52c-.61,0-1.12-.51-1.12-1.11v-21.16Z"/>
          <path class="cls-1" d="M894.1,344.6c0-.56.51-1.11,1.11-1.11h.81c.51,0,.81.2.91.71l.51,1.77s2.43-2.99,7.24-2.99c3.49,0,5.37,1.27,6.88,3.7.3-.2,3.65-3.7,8.35-3.7,6.78,0,8.4,4.4,8.4,10.43v12.35c0,.61-.51,1.11-1.11,1.11h-1.52c-.61,0-1.11-.51-1.11-1.11v-12.35c0-4.35-1.42-7.04-4.96-7.04-3.8,0-5.92,2.48-6.78,3.19.2,1.01.3,2.63.3,3.85v12.35c0,.61-.51,1.11-1.11,1.11h-1.52c-.56,0-1.11-.51-1.11-1.11v-12.35c0-4.46-1.47-7.04-5.26-7.04-4.15,0-6.28,3.24-6.28,3.24v16.15c0,.61-.56,1.11-1.11,1.11h-1.52c-.61,0-1.11-.51-1.11-1.11v-21.16Z"/>
          <path class="cls-1" d="M933.99,334.72c0-1.62,1.22-2.83,2.73-2.83s2.78,1.21,2.78,2.83c0,1.47-1.22,2.73-2.78,2.73s-2.73-1.26-2.73-2.73ZM934.95,344.6c0-.56.51-1.11,1.11-1.11h1.52c.56,0,1.11.56,1.11,1.11v21.16c0,.61-.56,1.11-1.11,1.11h-1.52c-.61,0-1.11-.51-1.11-1.11v-21.16Z"/>
          <path class="cls-1" d="M944.01,346.72c-.71,0-1.16-.51-1.16-1.11v-1.01c0-.66.45-1.11,1.16-1.11h3.09v-6.48c0-.61.56-1.06,1.11-1.11l1.57-.1c.61-.05,1.06.51,1.06,1.11v6.58h6.89c.66,0,1.16.46,1.16,1.11v1.01c0,.61-.5,1.11-1.16,1.11h-6.89v13.97c0,2.43.76,3.34,2.08,3.34,2.18,0,3.65-.91,4.61-1.52.91-.56,1.22-.1,1.47.46l.46,1.06c.3.76.2,1.11-.41,1.52-1.01.71-3.44,1.87-6.58,1.87-4.46,0-5.37-2.83-5.37-6.48v-14.22h-3.09Z"/>
        </g>
      </g>
    </g>
  </g>
</svg>